<?xml version="1.0" encoding="UTF-8"?>
<!DOCTYPE svg PUBLIC "-//W3C//DTD SVG 1.1//EN" "http://www.w3.org/Graphics/SVG/1.1/DTD/svg11.dtd">
<svg xmlns="http://www.w3.org/2000/svg" version="1.1" width="1500px" height="356px" style="shape-rendering:geometricPrecision; text-rendering:geometricPrecision; image-rendering:optimizeQuality; fill-rule:evenodd; clip-rule:evenodd" xmlns:xlink="http://www.w3.org/1999/xlink">
<g><path style="opacity:1" fill="#cbcccb" d="M 1263.5,-0.5 C 1295.17,-0.5 1326.83,-0.5 1358.5,-0.5C 1359.17,0.267389 1360.01,0.934056 1361,1.5C 1361.67,118.5 1361.67,235.5 1361,352.5C 1360.02,353.814 1358.85,354.814 1357.5,355.5C 1326.5,355.5 1295.5,355.5 1264.5,355.5C 1263.83,354.733 1262.99,354.066 1262,353.5C 1261.33,236.5 1261.33,119.5 1262,2.5C 1262.51,1.47344 1263.01,0.473444 1263.5,-0.5 Z"/></g>
<g><path style="opacity:1" fill="#cbcccb" d="M 1145.5,0.5 C 1177.83,0.5 1210.17,0.5 1242.5,0.5C 1242.5,118.5 1242.5,236.5 1242.5,354.5C 1210.17,354.5 1177.83,354.5 1145.5,354.5C 1145.5,236.5 1145.5,118.5 1145.5,0.5 Z"/></g>
<g><path style="opacity:1" fill="#cbcccb" d="M 1380.5,0.5 C 1412.83,0.5 1445.17,0.5 1477.5,0.5C 1477.5,118.5 1477.5,236.5 1477.5,354.5C 1445.17,354.5 1412.83,354.5 1380.5,354.5C 1380.5,236.5 1380.5,118.5 1380.5,0.5 Z"/></g>
<g><path style="opacity:0.999" fill="#41b3f9" d="M 435.5,49.5 C 445.595,48.8745 455.428,49.5411 465,51.5C 465.186,76.1692 465.186,100.836 465,125.5C 484.308,105.905 506.475,101.738 531.5,113C 544.664,125.182 550.831,140.349 550,158.5C 550.667,187.833 550.667,217.167 550,246.5C 549.228,247.849 548.061,248.682 546.5,249C 537.487,249.552 528.487,249.385 519.5,248.5C 519.667,217.498 519.5,186.498 519,155.5C 517.329,149.157 514.829,143.157 511.5,137.5C 500.564,131.918 489.898,132.418 479.5,139C 476.5,141.333 473.5,143.667 470.5,146C 468.19,147.637 466.69,149.804 466,152.5C 465.826,184.209 465.326,215.875 464.5,247.5C 454.856,248.498 445.19,248.832 435.5,248.5C 435.5,182.167 435.5,115.833 435.5,49.5 Z"/></g>
<g><path style="opacity:1" fill="#41b3f9" d="M 0.5,64.5 C 25.1689,64.3334 49.8356,64.5 74.5,65C 108.707,67.5256 126.04,86.0256 126.5,120.5C 125.92,151.911 110.253,170.744 79.5,177C 62.8725,179.451 46.2058,179.951 29.5,178.5C 29.5,201.833 29.5,225.167 29.5,248.5C 19.8333,248.5 10.1667,248.5 0.5,248.5C 0.5,187.167 0.5,125.833 0.5,64.5 Z M 29.5,88.5 C 41.1714,88.3335 52.8381,88.5001 64.5,89C 75.6985,89.0208 84.8652,93.1874 92,101.5C 97.637,113.642 97.9703,125.976 93,138.5C 91.686,140.812 90.0194,142.812 88,144.5C 69.7871,154.775 50.2871,158.442 29.5,155.5C 29.5,133.167 29.5,110.833 29.5,88.5 Z"/></g>
<g><path style="opacity:0.999" fill="#41b3f9" d="M 200.5,106.5 C 217.39,104.475 232.723,108.308 246.5,118C 254.812,127.586 259.646,138.752 261,151.5C 261.5,183.832 261.667,216.165 261.5,248.5C 256.509,248.874 251.509,249.208 246.5,249.5C 243.045,249.579 239.712,249.079 236.5,248C 235.3,243.609 234.466,239.109 234,234.5C 219.517,247.105 202.684,252.939 183.5,252C 157.863,246.004 146.697,229.837 150,203.5C 153.375,190.466 160.875,180.633 172.5,174C 191.114,164.977 210.781,160.477 231.5,160.5C 229.752,137.919 217.752,128.753 195.5,133C 185.83,136.001 176.496,139.835 167.5,144.5C 165.971,144.471 164.804,143.804 164,142.5C 161.667,138.833 159.333,135.167 157,131.5C 156.223,128.571 156.39,125.737 157.5,123C 171.097,115.186 185.431,109.686 200.5,106.5 Z M 231.5,179.5 C 232.659,190.326 232.826,201.326 232,212.5C 220.75,224.916 206.916,229.749 190.5,227C 179.241,221.925 175.741,213.425 180,201.5C 188.16,190.825 198.994,184.325 212.5,182C 218.977,181.138 225.311,180.305 231.5,179.5 Z"/></g>
<g><path style="opacity:0.999" fill="#41b3f9" d="M 636.5,106.5 C 668.464,104.726 690.964,118.393 704,147.5C 711.433,169.908 711.099,192.242 703,214.5C 689.239,241.637 667.072,254.137 636.5,252C 601.119,244.608 581.953,222.775 579,186.5C 576.359,155.958 587.526,132.124 612.5,115C 620.163,110.837 628.163,108.004 636.5,106.5 Z M 638.5,131.5 C 661.304,131.461 674.47,142.795 678,165.5C 682.341,186.299 677.841,204.799 664.5,221C 643.217,233.246 626.717,228.746 615,207.5C 605.453,183.024 608.287,160.19 623.5,139C 628.045,135.394 633.045,132.894 638.5,131.5 Z"/></g>
<g><path style="opacity:0.999" fill="#41b3f9" d="M 958.5,106.5 C 964.304,106.745 969.97,107.745 975.5,109.5C 975.833,110.5 976.167,111.5 976.5,112.5C 975.144,119.922 973.477,127.256 971.5,134.5C 951.133,131.595 936.633,139.261 928,157.5C 927.012,160.424 926.346,163.424 926,166.5C 925.5,193.831 925.333,221.165 925.5,248.5C 915.5,248.5 905.5,248.5 895.5,248.5C 895.5,202.833 895.5,157.167 895.5,111.5C 903.833,111.5 912.167,111.5 920.5,111.5C 920.911,118.212 921.744,124.879 923,131.5C 930.997,117.596 942.83,109.262 958.5,106.5 Z"/></g>
<g><path style="opacity:0.999" fill="#41b3f9" d="M 1029.5,106.5 C 1048.95,105.066 1066.45,110.066 1082,121.5C 1082.76,125.329 1081.76,128.662 1079,131.5C 1076.87,134.63 1074.37,137.463 1071.5,140C 1070.17,140.667 1068.83,140.667 1067.5,140C 1054.37,131.03 1040.37,129.03 1025.5,134C 1017.49,140.198 1016.49,147.364 1022.5,155.5C 1033.8,162.437 1045.8,167.937 1058.5,172C 1087.26,185.222 1094.1,205.722 1079,233.5C 1064.61,249.186 1046.78,255.353 1025.5,252C 1012.41,250.636 1000.41,246.302 989.5,239C 986.275,237.277 983.942,234.777 982.5,231.5C 983.643,227.212 985.81,223.545 989,220.5C 990.765,218.226 992.932,216.559 995.5,215.5C 1001.13,218.315 1006.8,221.149 1012.5,224C 1025.26,229.793 1037.93,229.793 1050.5,224C 1059.87,215.112 1059.54,206.445 1049.5,198C 1039.49,192.886 1029.16,188.553 1018.5,185C 993.555,175.61 984.722,158.11 992,132.5C 999.748,116.91 1012.25,108.243 1029.5,106.5 Z"/></g>
<g><path style="opacity:0.999" fill="#41b3f9" d="M 385.5,110.5 C 394.188,110.413 402.854,110.747 411.5,111.5C 396.703,157.392 381.203,203.058 365,248.5C 359.817,265.373 351.65,280.54 340.5,294C 325.288,306.342 308.288,309.508 289.5,303.5C 290.575,295.791 291.908,288.125 293.5,280.5C 311.575,283.884 324.075,277.217 331,260.5C 334.529,253.742 335.196,246.742 333,239.5C 316.667,199.5 300.333,159.5 284,119.5C 282.921,116.937 282.421,114.271 282.5,111.5C 292.855,111.168 303.188,111.501 313.5,112.5C 325.976,147.098 338.143,181.764 350,216.5C 359.727,182.32 370.06,148.32 381,114.5C 381.907,112.391 383.407,111.058 385.5,110.5 Z"/></g>
<g><path style="opacity:0.999" fill="#41b3f9" d="M 739.5,111.5 C 749.416,111.181 759.25,111.514 769,112.5C 769.333,141.833 769.667,171.167 770,200.5C 773.338,223.921 785.838,230.754 807.5,221C 812,217.167 816.5,213.333 821,209.5C 821.862,207.913 822.529,206.246 823,204.5C 823.5,173.502 823.667,142.502 823.5,111.5C 833.5,111.5 843.5,111.5 853.5,111.5C 853.5,157.167 853.5,202.833 853.5,248.5C 845.167,248.5 836.833,248.5 828.5,248.5C 827.995,242.131 827.162,235.798 826,229.5C 809.614,250.072 788.78,256.572 763.5,249C 747.851,240.221 740.017,226.721 740,208.5C 739.5,176.168 739.333,143.835 739.5,111.5 Z"/></g>
</svg>
